<svg version="1.2" xmlns="http://www.w3.org/2000/svg" viewBox="0 0 2216 1000" width="300" height="135">
	<title>Logo_An-ai-svg</title>
	<style>
		.s0 { fill: #ffffff } 
		.s1 { fill: #94eeff } 
		.s2 { fill: #4161d8 } 
		.s3 { fill: #1cff4a } 
		.s4 { fill: #00d58b } 
		.s5 { fill: #ffed40 } 
	</style>
	<g id="Layer 1">
		<g id="&lt;Group&gt;">
			<g id="&lt;Group&gt;">
				<path id="&lt;Compound Path&gt;" fill-rule="evenodd" class="s0" d="m516.2 457.2h-55.5l-7.5 23.5h-37.4l50.9-149.5h43.5l50.9 149.5h-37.4zm-10.2-32l-17.6-54.9-17.5 54.9z"/>
				<path id="&lt;Compound Path&gt;" class="s0" d="m675.4 415.1v65.6h-32v-60.9c0-13.2-8.4-19.4-18.6-19.4-11.8 0-19.9 6.8-19.9 22v58.3h-32v-106.8h32v10.1c5.8-7.9 16.5-13.1 30.6-13.1 21.5 0 39.9 15.4 39.9 44.2z"/>
				<path id="&lt;Compound Path&gt;" class="s0" d="m510.7 685.1l-47.9-69.2v69.2h-34.2v-149.5h34.2v64.9l45.7-64.9h38.9l-50.4 72.8 52.6 76.7z"/>
				<path id="&lt;Compound Path&gt;" fill-rule="evenodd" class="s0" d="m661.3 578.3v106.8h-32v-10c-7.1 8.1-17.6 13-31.9 13-28 0-51-24.6-51-56.4 0-31.8 23-56.4 51-56.4 14.3 0 24.8 4.9 31.9 13v-10zm-32.1 53.4c0-16-10.7-26.1-25.4-26.1-14.7 0-25.4 10.1-25.4 26.1 0 16 10.7 26.1 25.4 26.1 14.7 0 25.4-10.1 25.4-26.1z"/>
				<path id="&lt;Compound Path&gt;" class="s0" d="m787.4 619.5v65.6h-32.1v-60.9c0-13.2-8.3-19.4-18.6-19.4-11.7 0-19.8 6.8-19.8 22v58.3h-32.1v-106.8h32.1v10c5.7-7.9 16.4-13 30.5-13 21.6 0 40 15.4 40 44.2z"/>
				<path id="&lt;Compound Path&gt;" fill-rule="evenodd" class="s0" d="m919 578.3v106.8h-32.1v-10c-7 8.1-17.5 13-31.8 13-28 0-51.1-24.6-51.1-56.4 0-31.8 23.1-56.4 51.1-56.4 14.3 0 24.8 4.9 31.8 13v-10zm-32 53.4c0-16-10.7-26.1-25.4-26.1-14.8 0-25.5 10.1-25.5 26.1 0 16 10.7 26.1 25.5 26.1 14.7 0 25.4-10.1 25.4-26.1z"/>
				<path id="&lt;Compound Path&gt;" class="s0" d="m1024.3 653.1c0 24.5-21.4 35-44.4 35-21.4 0-37.6-8.1-45.9-25.4l27.7-15.8c2.8 8.1 8.8 12.6 18.2 12.6 7.7 0 11.5-2.4 11.5-6.7 0-11.7-52.5-5.5-52.5-42.5 0-23.3 19.6-35 41.8-35 17.3 0 32.7 7.7 41.7 22.9l-27.4 14.7c-2.9-5.6-7.2-9.4-14.3-9.4-5.5 0-8.9 2.1-8.9 6 0 12.2 52.5 4 52.5 43.6z"/>
				<path id="&lt;Compound Path&gt;" class="s0" d="m1142.9 619.5v65.6h-32.1v-60.9c0-13.2-8.3-19.4-18.5-19.4-11.8 0-19.9 6.8-19.9 22v58.3h-32v-149.5h32v52.7c5.8-7.9 16.4-13 30.5-13 21.6 0 40 15.4 40 44.2z"/>
				<path id="&lt;Compound Path&gt;" fill-rule="evenodd" class="s0" d="m1219.2 659.5c8.7 0 16.2-3.5 20.5-8.2l25.6 14.8c-10.5 14.5-26.3 22-46.6 22-36.5 0-59.1-24.6-59.1-56.4 0-31.8 23-56.4 56.8-56.4 31.2 0 54.2 24.1 54.2 56.4q0 6.7-1.2 12.8h-75.9c4.1 11.1 13.9 15 25.7 15zm19.6-38.9c-3.4-12.4-13-16.9-22.6-16.9-12.2 0-20.3 6-23.3 16.9z"/>
				<path id="&lt;Compound Path&gt;" class="s0" d="m1388.2 578.3l-39.6 106.8h-36.3l-39.5-106.8h35.5l22.2 67.7 22.2-67.7z"/>
				<path id="&lt;Compound Path&gt;" class="s0" d="m1396.7 549.7c0-10.5 8.8-19.3 19.3-19.3 10.4 0 19.2 8.8 19.2 19.3 0 10.4-8.8 19.2-19.2 19.2-10.5 0-19.3-8.8-19.3-19.2zm3.2 28.6h32.1v106.8h-32.1z"/>
				<path id="&lt;Compound Path&gt;" class="s0" d="m1450.1 631.7c0-31.8 24.2-56.4 56.7-56.4 20.7 0 39 10.9 48.2 27.3l-28 16.3c-3.6-7.5-11.3-12-20.7-12-13.9 0-24.1 10.1-24.1 24.8 0 14.7 10.2 24.8 24.1 24.8 9.4 0 17.3-4.5 20.7-12l28 16c-9.2 16.7-27.3 27.6-48.2 27.6-32.5 0-56.7-24.6-56.7-56.4z"/>
				<path id="&lt;Compound Path&gt;" class="s0" d="m1670.4 619.5v65.6h-32v-60.9c0-13.2-8.4-19.4-18.6-19.4-11.8 0-19.9 6.8-19.9 22v58.3h-32v-149.5h32v52.7c5.8-7.9 16.5-13 30.6-13 21.5 0 39.9 15.4 39.9 44.2z"/>
			</g>
			<path id="&lt;Path&gt;" class="s1" d="m1202.1 395.9l-83.5-83.5h167z"/>
			<path id="&lt;Path&gt;" class="s1" d="m1287.5 499.4h-170.8l85.4-85.4z"/>
			<g id="&lt;Group&gt;">
				<g id="&lt;Group&gt;">
					<path id="&lt;Compound Path&gt;" fill-rule="evenodd" class="s2" d="m921.6 312.4v187h-187v-187zm-34.9 34.8h-117.4v117.4h117.4z"/>
				</g>
			</g>
			<path id="&lt;Path&gt;" class="s3" d="m921.6 499.2v-186.5c49 2.9 87.9 43.5 87.9 93.2 0 49.8-38.9 90.3-87.9 93.3z"/>
			<path id="&lt;Path&gt;" class="s3" d="m1108.6 312.4v187c-51.6 0-93.5-41.8-93.5-93.5 0-51.6 41.9-93.5 93.5-93.5z"/>
			<path id="&lt;Path&gt;" class="s3" d="m1669.7 312.4l-93.5 187-93.5-187z"/>
			<path id="&lt;Path&gt;" class="s4" d="m1295.6 499.2q0 0.1 0 0.2z"/>
			<g id="&lt;Group&gt;">
				<circle id="&lt;Path&gt;" class="s5" cx="1342.4" cy="359.2" r="40.2"/>
			</g>
			<g id="&lt;Group&gt;">
				<circle id="&lt;Path&gt;" class="s5" cx="1435.9" cy="359.2" r="39.9"/>
			</g>
			<g id="&lt;Group&gt;">
				<circle id="&lt;Path&gt;" class="s5" cx="1342.4" cy="452.7" r="40.2"/>
			</g>
			<g id="&lt;Group&gt;">
				<circle id="&lt;Path&gt;" class="s5" cx="1435.9" cy="452.7" r="38.7"/>
			</g>
		</g>
	</g>
</svg>